<svg xmlns="http://www.w3.org/2000/svg" style="display: none;"><symbol id="information" viewBox="0 0 512.00061 512"><title>information</title><path d="m412 136c0 5.519531 4.480469 10 10 10s10-4.480469 10-10-4.480469-10-10-10-10 4.480469-10 10zm0 0" fill="#08FDD8"/><path d="m452 256c0 12.808594-1.285156 25.59375-3.816406 38-1.105469 5.410156 2.386718 10.691406 7.796875 11.796875.675781.140625 1.347656.207031 2.011719.207031 4.652343 0 8.820312-3.269531 9.789062-8.003906 2.800781-13.722656 4.21875-27.851562 4.21875-42 0-31.488281-6.828125-61.789062-20.300781-90.0625-2.375-4.984375-8.339844-7.101562-13.328125-4.726562-4.988282 2.375-7.101563 8.34375-4.726563 13.332031 12.179688 25.5625 18.355469 52.96875 18.355469 81.457031zm0 0" fill="#08FDD8"/><path d="m306 346h-10v-130c0-5.523438-4.476562-10-10-10h-80c-5.523438 0-10 4.476562-10 10v40c0 5.523438 4.476562 10 10 10h10v80h-10c-5.523438 0-10 4.476562-10 10v40c0 5.523438 4.476562 10 10 10h100c5.523438 0 10-4.476562 10-10v-40c0-5.523438-4.476562-10-10-10zm-10 40h-80v-20h10c5.523438 0 10-4.476562 10-10v-100c0-5.523438-4.476562-10-10-10h-10v-20h60v130c0 5.523438 4.480469 10 10 10h10zm0 0" fill="#08FDD8"/><path d="m256 186c22.054688 0 40-17.945312 40-40s-17.945312-40-40-40-40 17.945312-40 40 17.945312 40 40 40zm0-60c11.027344 0 20 8.972656 20 20s-8.972656 20-20 20-20-8.972656-20-20 8.972656-20 20-20zm0 0" fill="#08FDD8"/><path d="m256 0c-137.976562 0-256 117.800781-256 256 0 47.207031 13.527344 97.410156 36.335938 135.382812l-35.824219 107.457032c-1.195313 3.589844-.261719 7.554687 2.417969 10.230468 2.691406 2.691407 6.660156 3.609376 10.234374 2.414063l107.457032-35.820313c37.96875 22.8125 88.171875 36.335938 135.378906 36.335938 138.011719 0 256-117.816406 256-256 0-138.011719-117.8125-256-256-256zm0 492c-45.285156 0-93.417969-13.363281-128.757812-35.746094-2.503907-1.585937-5.625-2.003906-8.515626-1.039062l-92.914062 30.972656 30.972656-92.914062c.953125-2.851563.570313-5.976563-1.039062-8.515626-22.382813-35.335937-35.746094-83.472656-35.746094-128.757812 0-127.925781 108.074219-236 236-236s236 108.074219 236 236-108.074219 236-236 236zm0 0" fill="#08FDD8"/></symbol><symbol id="suitcase" viewBox="0 0 24 24"><title>suitcase</title><g><path d="m21.5 22h-19c-1.4 0-2.5-1.1-2.5-2.5v-12c0-1.4 1.1-2.5 2.5-2.5h19c1.4 0 2.5 1.1 2.5 2.5v12c0 1.4-1.1 2.5-2.5 2.5zm-19-16c-.8 0-1.5.7-1.5 1.5v12c0 .8.7 1.5 1.5 1.5h19c.8 0 1.5-.7 1.5-1.5v-12c0-.8-.7-1.5-1.5-1.5z" fill="#08FDD8"/></g><g><path d="m15.5 6c-.3 0-.5-.2-.5-.5v-2c0-.3-.2-.5-.5-.5h-5c-.3 0-.5.2-.5.5v2c0 .3-.2.5-.5.5s-.5-.2-.5-.5v-2c0-.8.7-1.5 1.5-1.5h5c.8 0 1.5.7 1.5 1.5v2c0 .3-.2.5-.5.5z" fill="#08FDD8"/></g><g><path d="m12 14c-.1 0-.1 0-.2 0l-11.5-4c-.2-.1-.4-.4-.3-.7.1-.2.4-.4.7-.3l11.3 4 11.3-4c.3-.1.5 0 .6.3s0 .5-.3.6l-11.5 4c0 .1 0 .1-.1.1z" fill="#08FDD8"/></g></symbol><symbol id="settings" viewBox="0 0 512 512"><title>settings</title><g> <g> <path d="M509.952,223.895c-1.685-12.864-8.96-24.021-19.989-30.677c-10.859-6.549-23.872-7.723-36.011-3.2 c-9.813,3.712-21.077-1.387-25.6-11.499c-5.205-11.605-11.584-22.72-19.008-33.045c-6.613-9.173-5.376-21.205,2.859-27.989 c9.813-8.064,15.296-19.989,15.04-32.683c-0.256-12.907-6.357-24.789-16.683-32.64c-17.024-12.907-35.584-23.616-55.189-31.872 c-12.053-5.077-25.429-4.373-36.736,1.856c-11.115,6.144-18.667,16.811-20.757,29.333c-1.771,10.56-11.541,17.621-22.933,16.448 c-12.459-1.323-25.429-1.323-37.867,0c-11.285,1.195-21.163-5.888-22.933-16.448c-2.091-12.523-9.643-23.211-20.757-29.333 c-11.328-6.251-24.725-6.933-36.736-1.856c-19.627,8.256-38.187,18.965-55.211,31.872C91.115,60.012,85.035,71.895,84.779,84.78 c-0.256,12.715,5.227,24.619,15.061,32.747c8.213,6.763,9.451,18.795,2.859,27.968c-7.445,10.325-13.824,21.44-19.029,33.045 c-4.501,10.133-15.787,15.211-25.835,11.413c-11.861-4.416-24.896-3.243-35.776,3.285c-11.051,6.635-18.325,17.813-19.989,30.677 C0.704,234.497,0,245.313,0,256.001c0,10.688,0.704,21.504,2.048,32.107c1.685,12.864,8.96,24.021,19.989,30.677 c10.859,6.528,23.851,7.723,36.011,3.2c9.792-3.733,21.056,1.365,25.6,11.499c5.205,11.605,11.584,22.72,19.008,33.045 c6.613,9.173,5.376,21.205-2.859,27.989c-9.813,8.064-15.296,19.989-15.04,32.683c0.256,12.907,6.357,24.789,16.683,32.64 c17.024,12.907,35.584,23.616,55.189,31.872c12.053,5.077,25.408,4.373,36.736-1.856c11.115-6.144,18.667-16.811,20.757-29.333 c1.771-10.56,11.627-17.621,22.933-16.448c12.437,1.323,25.408,1.323,37.867,0c11.413-1.131,21.163,5.888,22.933,16.448 c2.091,12.523,9.643,23.211,20.757,29.333c6.315,3.477,13.227,5.227,20.224,5.227c5.589,0,11.179-1.131,16.491-3.371 c19.605-8.256,38.165-18.987,55.189-31.872c10.347-7.829,16.427-19.733,16.683-32.619c0.256-12.715-5.227-24.64-15.04-32.725 c-8.213-6.763-9.451-18.795-2.859-27.968c7.445-10.325,13.824-21.44,19.029-33.045c4.523-10.133,15.829-15.189,25.6-11.499 l0.235,0.085c11.904,4.459,24.917,3.243,35.776-3.285c11.051-6.656,18.325-17.813,19.989-30.699 c1.365-10.688,2.069-21.461,2.069-32.085C512,245.377,511.296,234.604,509.952,223.895z M488.768,285.377 c-0.811,6.336-4.395,11.861-9.813,15.125c-5.227,3.179-11.541,3.733-17.515,1.493l-0.128-0.043 c-20.352-7.531-43.328,2.475-52.437,22.827c-4.608,10.283-10.283,20.16-16.875,29.312c-13.248,18.432-10.389,42.901,6.635,56.896 c4.736,3.904,7.381,9.664,7.253,15.808c-0.128,6.336-3.115,12.181-8.235,16.064c-15.573,11.819-32.597,21.653-50.581,29.205 c-5.952,2.517-12.608,2.176-18.155-0.875c-5.355-2.965-9.003-8.107-10.005-14.144c-3.392-20.288-20.757-34.411-41.387-34.411 c-1.579,0-3.2,0.064-4.821,0.192c-10.987,1.152-22.421,1.152-33.408,0c-22.699-2.581-42.56,12.309-46.208,34.155 c-1.003,6.037-4.651,11.2-10.005,14.144c-5.568,3.072-12.203,3.392-18.176,0.875c-17.984-7.573-35.008-17.387-50.581-29.205 c-5.12-3.861-8.107-9.728-8.235-16.043c-0.128-6.144,2.517-11.904,7.275-15.808c17.024-13.995,19.861-38.464,6.613-56.896 c-6.592-9.173-12.245-19.029-16.853-29.312c-9.131-20.395-32.192-30.357-52.821-22.677c-5.696,2.133-12.032,1.6-17.259-1.579 c-5.419-3.243-9.003-8.768-9.813-15.125c-1.259-9.685-1.899-19.584-1.899-29.355c0-9.771,0.64-19.669,1.92-29.376 c0.811-6.336,4.395-11.861,9.813-15.125c5.205-3.157,11.541-3.733,17.493-1.493c20.373,7.595,43.435-2.368,52.565-22.784 c4.608-10.283,10.283-20.139,16.875-29.291c13.248-18.432,10.389-42.901-6.635-56.896c-4.736-3.904-7.381-9.664-7.253-15.808 c0.128-6.336,3.115-12.181,8.235-16.064c15.573-11.819,32.597-21.632,50.581-29.205c5.952-2.517,12.587-2.197,18.155,0.875 c5.355,2.944,9.003,8.107,10.005,14.165c3.648,21.845,23.509,36.587,46.208,34.155c10.965-1.152,22.4-1.152,33.408,0 c22.571,2.411,42.56-12.309,46.208-34.155c1.003-6.037,4.651-11.2,10.005-14.144c5.568-3.093,12.181-3.413,18.176-0.875 c17.984,7.573,35.008,17.387,50.581,29.205c5.12,3.861,8.107,9.728,8.235,16.043c0.128,6.144-2.517,11.904-7.275,15.808 c-17.024,13.995-19.861,38.464-6.613,56.896c6.592,9.173,12.245,19.029,16.853,29.312c9.131,20.395,32.213,30.379,52.821,22.677 c5.717-2.155,12.011-1.579,17.259,1.579c5.419,3.264,9.003,8.789,9.813,15.125c1.259,9.792,1.899,19.669,1.899,29.376 C490.667,265.708,490.027,275.585,488.768,285.377z" fill="#08FDD8"/> </g> </g><g> <g> <path d="M256,149.335c-58.816,0-106.667,47.851-106.667,106.667S197.184,362.668,256,362.668s106.667-47.851,106.667-106.667 S314.816,149.335,256,149.335z M256,341.335c-47.061,0-85.333-38.272-85.333-85.333s38.272-85.333,85.333-85.333 s85.333,38.272,85.333,85.333S303.061,341.335,256,341.335z" fill="#08FDD8"/> </g> </g></symbol><symbol id="contact" viewBox="0 0 511.874 511.874"><title>contact</title><path d="M490.114,12.813H132.568c-12.012,0.014-21.746,9.748-21.76,21.76v98.62l-16.35-24.525 c-7.484-11.289-22.535-14.676-34.133-7.68l-33.638,20.224c-11.016,6.464-19.097,16.946-22.545,29.244 c-12.271,44.681-3.166,121.66,109.824,234.667C203.821,474.885,270.816,499.06,316.99,499.06 c10.69,0.049,21.339-1.34,31.659-4.13c12.293-3.448,22.775-11.518,29.252-22.519l20.198-33.673 c6.968-11.589,3.584-26.609-7.68-34.091l-80.546-53.692c-11.049-7.308-25.859-4.905-34.031,5.521l-23.45,30.148 c-2.451,3.226-6.897,4.166-10.445,2.21l-4.463-2.458c-14.686-8.004-32.964-17.971-69.879-54.886 c-3.994-3.994-7.612-7.731-11.008-11.307h333.517c11.982,0.009,21.713-9.676,21.76-21.658V34.573 C511.86,22.561,502.126,12.827,490.114,12.813z M229.318,401.362l4.335,2.381c10.897,6.093,24.614,3.266,32.213-6.639 l23.45-30.148c2.666-3.396,7.49-4.179,11.093-1.801l80.546,53.692c3.659,2.439,4.759,7.321,2.5,11.093l-20.198,33.673 c-4.218,7.233-11.071,12.553-19.123,14.848c-40.337,11.093-110.933,1.707-218.078-105.446S9.56,195.273,20.627,154.97 c2.293-8.051,7.61-14.903,14.839-19.123l33.673-20.207c3.773-2.254,8.652-1.155,11.093,2.5l53.717,80.546 c2.382,3.602,1.599,8.43-1.801,11.093l-30.157,23.458c-9.903,7.597-12.731,21.311-6.639,32.205l2.389,4.335 c8.533,15.65,19.14,35.123,57.805,73.779C194.212,382.213,213.677,392.828,229.318,401.362z M494.808,298.526 c-0.028,2.567-2.127,4.627-4.693,4.608H141.203c-11.083-12.674-20.64-26.604-28.476-41.506l-2.458-4.48 c-1.96-3.54-1.022-7.982,2.202-10.428l30.157-23.458c10.43-8.17,12.833-22.982,5.521-34.031l-20.275-30.43V34.573 c-0.014-1.249,0.476-2.451,1.359-3.334c0.883-0.883,2.085-1.373,3.334-1.359h357.547c1.249-0.014,2.451,0.476,3.334,1.359 c0.883,0.883,1.373,2.085,1.359,3.334V298.526z" fill="#08FDD8"/><path d="M460.725,52.323l-142.618,108.16c-4.035,2.932-9.499,2.932-13.534,0L162.008,52.323 c-3.756-2.849-9.111-2.113-11.959,1.643c-2.849,3.756-2.113,9.111,1.643,11.959l142.583,108.151 c10.144,7.494,23.989,7.494,34.133,0L471.034,65.925c1.805-1.368,2.992-3.398,3.299-5.642c0.307-2.244-0.29-4.518-1.661-6.321 C469.824,50.213,464.478,49.48,460.725,52.323z" fill="#08FDD8"/><path d="M238.517,174.793l-87.415,93.611c-3.214,3.447-3.025,8.848,0.422,12.062c3.447,3.214,8.848,3.025,12.062-0.422 l87.416-93.653c2.888-3.484,2.553-8.617-0.762-11.698C246.924,171.612,241.78,171.656,238.517,174.793z" fill="#08FDD8"/><path d="M384.728,174.793c-3.214-3.447-8.614-3.637-12.062-0.422c-3.447,3.214-3.637,8.614-0.422,12.062l87.39,93.611 c3.214,3.447,8.614,3.637,12.062,0.422c3.447-3.214,3.637-8.614,0.422-12.062L384.728,174.793z" fill="#08FDD8"/></symbol><symbol id="home" viewBox="0 0 476.912 476.912"><title>home</title><path d="M461.776,209.408L249.568,4.52c-6.182-6.026-16.042-6.026-22.224,0L15.144,209.4c-3.124,3.015-4.888,7.17-4.888,11.512 c0,8.837,7.164,16,16,16h28.2v224c0,8.837,7.163,16,16,16h112c8.837,0,16-7.163,16-16v-128h80v128c0,8.837,7.163,16,16,16h112 c8.837,0,16-7.163,16-16v-224h28.2c4.338,0,8.489-1.761,11.504-4.88C468.301,225.678,468.129,215.549,461.776,209.408z M422.456,220.912c-8.837,0-16,7.163-16,16v224h-112v-128c0-8.837-7.163-16-16-16h-80c-8.837,0-16,7.163-16,16v128h-112v-224 c0-8.837-7.163-16-16-16h-28.2l212.2-204.88l212.28,204.88H422.456z" fill="#08FDD8"/></symbol><symbol id="whatsapp-1" viewBox="0 0 24 24"><title>whatsapp-1</title><path d="m20.52 3.449c-2.28-2.204-5.28-3.449-8.475-3.449-9.17 0-14.928 9.935-10.349 17.838l-1.696 6.162 6.335-1.652c2.76 1.491 5.021 1.359 5.716 1.447 10.633 0 15.926-12.864 8.454-20.307z" fill="#eceff1"/><path d="m12.067 21.751-.006-.001h-.016c-3.182 0-5.215-1.507-5.415-1.594l-3.75.975 1.005-3.645-.239-.375c-.99-1.576-1.516-3.391-1.516-5.26 0-8.793 10.745-13.19 16.963-6.975 6.203 6.15 1.848 16.875-7.026 16.875z" fill="#4caf50"/><path d="m17.507 14.307-.009.075c-.301-.15-1.767-.867-2.04-.966-.613-.227-.44-.036-1.617 1.312-.175.195-.349.21-.646.075-.3-.15-1.263-.465-2.403-1.485-.888-.795-1.484-1.77-1.66-2.07-.293-.506.32-.578.878-1.634.1-.21.049-.375-.025-.524-.075-.15-.672-1.62-.922-2.206-.24-.584-.487-.51-.672-.51-.576-.05-.997-.042-1.368.344-1.614 1.774-1.207 3.604.174 5.55 2.714 3.552 4.16 4.206 6.804 5.114.714.227 1.365.195 1.88.121.574-.091 1.767-.721 2.016-1.426.255-.705.255-1.29.18-1.425-.074-.135-.27-.21-.57-.345z" fill="#fafafa"/></symbol><symbol id="linkedin-1" viewBox="0 0 24 24"><title>linkedin-1</title><path d="m23.994 24v-.001h.006v-8.802c0-4.306-.927-7.623-5.961-7.623-2.42 0-4.044 1.328-4.707 2.587h-.07v-2.185h-4.773v16.023h4.97v-7.934c0-2.089.396-4.109 2.983-4.109 2.549 0 2.587 2.384 2.587 4.243v7.801z"/><path d="m.396 7.977h4.976v16.023h-4.976z"/><path d="m2.882 0c-1.591 0-2.882 1.291-2.882 2.882s1.291 2.909 2.882 2.909 2.882-1.318 2.882-2.909c-.001-1.591-1.292-2.882-2.882-2.882z"/></symbol><symbol id="rss" viewBox="0 0 24 24"><title>rss</title><circle cx="3.429" cy="20.571" r="3.429"/><path d="m11.429 24h4.57c0-8.821-7.178-15.999-15.999-16v4.572c6.302.001 11.429 5.126 11.429 11.428z"/><path d="m24 24c0-13.234-10.766-24-24-24v4.571c10.714 0 19.43 8.714 19.43 19.429z"/></symbol><symbol id="rss-1" viewBox="0 0 24 24"><title>rss-1</title><circle cx="3.429" cy="20.571" r="3.429" fill="#08FDD8"/><path d="m11.429 24h4.57c0-8.821-7.178-15.999-15.999-16v4.572c6.302.001 11.429 5.126 11.429 11.428z" fill="#08FDD8"/><path d="m24 24c0-13.234-10.766-24-24-24v4.571c10.714 0 19.43 8.714 19.43 19.429z" fill="#08FDD8"/></symbol><symbol id="linkedin" viewBox="0 0 24 24"><title>linkedin</title><path d="m23.994 24v-.001h.006v-8.802c0-4.306-.927-7.623-5.961-7.623-2.42 0-4.044 1.328-4.707 2.587h-.07v-2.185h-4.773v16.023h4.97v-7.934c0-2.089.396-4.109 2.983-4.109 2.549 0 2.587 2.384 2.587 4.243v7.801z" fill="#08FDD8"/><path d="m.396 7.977h4.976v16.023h-4.976z" fill="#08FDD8"/><path d="m2.882 0c-1.591 0-2.882 1.291-2.882 2.882s1.291 2.909 2.882 2.909 2.882-1.318 2.882-2.909c-.001-1.591-1.292-2.882-2.882-2.882z" fill="#08FDD8"/></symbol><symbol id="whatsapp" viewBox="0 0 24 24"><title>whatsapp</title><path d="m17.507 14.307-.009.075c-2.199-1.096-2.429-1.242-2.713-.816-.197.295-.771.964-.944 1.162-.175.195-.349.21-.646.075-.3-.15-1.263-.465-2.403-1.485-.888-.795-1.484-1.77-1.66-2.07-.293-.506.32-.578.878-1.634.1-.21.049-.375-.025-.524-.075-.15-.672-1.62-.922-2.206-.24-.584-.487-.51-.672-.51-.576-.05-.997-.042-1.368.344-1.614 1.774-1.207 3.604.174 5.55 2.714 3.552 4.16 4.206 6.804 5.114.714.227 1.365.195 1.88.121.574-.091 1.767-.721 2.016-1.426.255-.705.255-1.29.18-1.425-.074-.135-.27-.21-.57-.345z" fill="#08FDD8"/><path d="m20.52 3.449c-7.689-7.433-20.414-2.042-20.419 8.444 0 2.096.549 4.14 1.595 5.945l-1.696 6.162 6.335-1.652c7.905 4.27 17.661-1.4 17.665-10.449 0-3.176-1.24-6.165-3.495-8.411zm1.482 8.417c-.006 7.633-8.385 12.4-15.012 8.504l-.36-.214-3.75.975 1.005-3.645-.239-.375c-4.124-6.565.614-15.145 8.426-15.145 2.654 0 5.145 1.035 7.021 2.91 1.875 1.859 2.909 4.35 2.909 6.99z" fill="#08FDD8"/></symbol><symbol id="logo" viewBox="0 0 24 24"><title>logo</title><path d="m12 .5c-6.63 0-12 5.28-12 11.792 0 5.211 3.438 9.63 8.205 11.188.6.111.82-.254.82-.567 0-.28-.01-1.022-.015-2.005-3.338.711-4.042-1.582-4.042-1.582-.546-1.361-1.335-1.725-1.335-1.725-1.087-.731.084-.716.084-.716 1.205.082 1.838 1.215 1.838 1.215 1.07 1.803 2.809 1.282 3.495.981.108-.763.417-1.282.76-1.577-2.665-.295-5.466-1.309-5.466-5.827 0-1.287.465-2.339 1.235-3.164-.135-.298-.54-1.497.105-3.121 0 0 1.005-.316 3.3 1.209.96-.262 1.98-.392 3-.398 1.02.006 2.04.136 3 .398 2.28-1.525 3.285-1.209 3.285-1.209.645 1.624.24 2.823.12 3.121.765.825 1.23 1.877 1.23 3.164 0 4.53-2.805 5.527-5.475 5.817.42.354.81 1.077.81 2.182 0 1.578-.015 2.846-.015 3.229 0 .309.21.678.825.56 4.801-1.548 8.236-5.97 8.236-11.173 0-6.512-5.373-11.792-12-11.792z" fill="#212121"/></symbol><symbol id="github-image" viewBox="0 0 24 24"><title>github-image</title><path d="m12 .5c-6.63 0-12 5.28-12 11.792 0 5.211 3.438 9.63 8.205 11.188.6.111.82-.254.82-.567 0-.28-.01-1.022-.015-2.005-3.338.711-4.042-1.582-4.042-1.582-.546-1.361-1.335-1.725-1.335-1.725-1.087-.731.084-.716.084-.716 1.205.082 1.838 1.215 1.838 1.215 1.07 1.803 2.809 1.282 3.495.981.108-.763.417-1.282.76-1.577-2.665-.295-5.466-1.309-5.466-5.827 0-1.287.465-2.339 1.235-3.164-.135-.298-.54-1.497.105-3.121 0 0 1.005-.316 3.3 1.209.96-.262 1.98-.392 3-.398 1.02.006 2.04.136 3 .398 2.28-1.525 3.285-1.209 3.285-1.209.645 1.624.24 2.823.12 3.121.765.825 1.23 1.877 1.23 3.164 0 4.53-2.805 5.527-5.475 5.817.42.354.81 1.077.81 2.182 0 1.578-.015 2.846-.015 3.229 0 .309.21.678.825.56 4.801-1.548 8.236-5.97 8.236-11.173 0-6.512-5.373-11.792-12-11.792z" fill="#08FDD8"/></symbol><symbol id="telegram" viewBox="0 0 24 24"><title>telegram</title><circle cx="12" cy="12" fill="#039be5" r="12"/><path d="m5.491 11.74 11.57-4.461c.537-.194 1.006.131.832.943l.001-.001-1.97 9.281c-.146.658-.537.818-1.084.508l-3-2.211-1.447 1.394c-.16.16-.295.295-.605.295l.213-3.053 5.56-5.023c.242-.213-.054-.333-.373-.121l-6.871 4.326-2.962-.924c-.643-.204-.657-.643.136-.953z" fill="#fff"/></symbol><symbol id="telegram-1" viewBox="0 0 24 24"><title>telegram-1</title><path d="m12 24c6.629 0 12-5.371 12-12s-5.371-12-12-12-12 5.371-12 12 5.371 12 12 12zm-6.509-12.26 11.57-4.461c.537-.194 1.006.131.832.943l.001-.001-1.97 9.281c-.146.658-.537.818-1.084.508l-3-2.211-1.447 1.394c-.16.16-.295.295-.605.295l.213-3.053 5.56-5.023c.242-.213-.054-.333-.373-.121l-6.871 4.326-2.962-.924c-.643-.204-.657-.643.136-.953z" fill="#08FDD8"/></symbol><symbol id="instagram-sketched-1" viewBox="0 0 24 24"><title>instagram-sketched-1</title><path d="m12.004 5.838c-3.403 0-6.158 2.758-6.158 6.158 0 3.403 2.758 6.158 6.158 6.158 3.403 0 6.158-2.758 6.158-6.158 0-3.403-2.758-6.158-6.158-6.158zm0 10.155c-2.209 0-3.997-1.789-3.997-3.997s1.789-3.997 3.997-3.997 3.997 1.789 3.997 3.997c.001 2.208-1.788 3.997-3.997 3.997z" fill="#08FDD8"/><path d="m16.948.076c-2.208-.103-7.677-.098-9.887 0-1.942.091-3.655.56-5.036 1.941-2.308 2.308-2.013 5.418-2.013 9.979 0 4.668-.26 7.706 2.013 9.979 2.317 2.316 5.472 2.013 9.979 2.013 4.624 0 6.22.003 7.855-.63 2.223-.863 3.901-2.85 4.065-6.419.104-2.209.098-7.677 0-9.887-.198-4.213-2.459-6.768-6.976-6.976zm3.495 20.372c-1.513 1.513-3.612 1.378-8.468 1.378-5 0-7.005.074-8.468-1.393-1.685-1.677-1.38-4.37-1.38-8.453 0-5.525-.567-9.504 4.978-9.788 1.274-.045 1.649-.06 4.856-.06l.045.03c5.329 0 9.51-.558 9.761 4.986.057 1.265.07 1.645.07 4.847-.001 4.942.093 6.959-1.394 8.453z" fill="#08FDD8"/><circle cx="18.406" cy="5.595" r="1.439" fill="#08FDD8"/></symbol><symbol id="facebook" viewBox="0 0 24 24"><title>facebook</title><path d="m15.997 3.985h2.191v-3.816c-.378-.052-1.678-.169-3.192-.169-6.932 0-5.046 7.85-5.322 9h-3.487v4.266h3.486v10.734h4.274v-10.733h3.345l.531-4.266h-3.877c.188-2.824-.761-5.016 2.051-5.016z" fill="#3b5999"/></symbol><symbol id="facebook-1" viewBox="0 0 24 24"><title>facebook-1</title><path d="m15.997 3.985h2.191v-3.816c-.378-.052-1.678-.169-3.192-.169-3.159 0-5.323 1.987-5.323 5.639v3.361h-3.486v4.266h3.486v10.734h4.274v-10.733h3.345l.531-4.266h-3.877v-2.939c.001-1.233.333-2.077 2.051-2.077z" fill="#08FDD8"/></symbol><symbol id="instagram-sketched" viewBox="0 0 24 24"><title>instagram-sketched</title><linearGradient id="SVGID_1_" gradientTransform="matrix(0 -1.982 -1.844 0 -132.522 -51.077)" gradientUnits="userSpaceOnUse" x1="-37.106" x2="-26.555" y1="-72.705" y2="-84.047"><stop offset="0" stop-color="#fd5"/><stop offset=".5" stop-color="#ff543e"/><stop offset="1" stop-color="#c837ab"/></linearGradient><path d="m1.5 1.633c-1.886 1.959-1.5 4.04-1.5 10.362 0 5.25-.916 10.513 3.878 11.752 1.497.385 14.761.385 16.256-.002 1.996-.515 3.62-2.134 3.842-4.957.031-.394.031-13.185-.001-13.587-.236-3.007-2.087-4.74-4.526-5.091-.559-.081-.671-.105-3.539-.11-10.173.005-12.403-.448-14.41 1.633z" fill="url(#SVGID_1_)"/><path d="m11.998 3.139c-3.631 0-7.079-.323-8.396 3.057-.544 1.396-.465 3.209-.465 5.805 0 2.278-.073 4.419.465 5.804 1.314 3.382 4.79 3.058 8.394 3.058 3.477 0 7.062.362 8.395-3.058.545-1.41.465-3.196.465-5.804 0-3.462.191-5.697-1.488-7.375-1.7-1.7-3.999-1.487-7.374-1.487zm-.794 1.597c7.574-.012 8.538-.854 8.006 10.843-.189 4.137-3.339 3.683-7.211 3.683-7.06 0-7.263-.202-7.263-7.265 0-7.145.56-7.257 6.468-7.263zm5.524 1.471c-.587 0-1.063.476-1.063 1.063s.476 1.063 1.063 1.063 1.063-.476 1.063-1.063-.476-1.063-1.063-1.063zm-4.73 1.243c-2.513 0-4.55 2.038-4.55 4.551s2.037 4.55 4.55 4.55 4.549-2.037 4.549-4.55-2.036-4.551-4.549-4.551zm0 1.597c3.905 0 3.91 5.908 0 5.908-3.904 0-3.91-5.908 0-5.908z" fill="#fff"/></symbol></svg>
